<svg xmlns="http://www.w3.org/2000/svg" xmlns:xlink="http://www.w3.org/1999/xlink" xmlns:dc="http://purl.org/dc/elements/1.1/" xmlns:cc="http://creativecommons.org/ns#" xmlns:rdf="http://www.w3.org/1999/02/22-rdf-syntax-ns#" version="1.1" id="DESIGNS" x="0px" y="0px" width="32" height="32" viewBox="0 0 32 32" style="enable-background:new 0 0 32 32;" xml:space="preserve">
<title property="dc:title">to alarm</title><desc property="dc:description">An icon for "alarm" from the Lines and Angles series on to [icon]. Downloaded from http://www.toicon.com/icons/lines-and-angles_alarm by 127.0.0.1 on 2017-07-10. Licensed CC-BY, see http://toicon.com/license/ for details.</desc>
<path class="linesandangles_een" d="M16,6C10.486,6,6,10.486,6,16c0,3.244,1.56,6.124,3.962,7.952L9.279,26h2.108l0.326-0.979  C13.015,25.642,14.465,26,16,26s2.985-0.358,4.286-0.979L20.612,26h2.108l-0.682-2.048C24.44,22.124,26,19.244,26,16  C26,10.486,21.514,6,16,6z M16,24c-4.411,0-8-3.589-8-8s3.589-8,8-8s8,3.589,8,8S20.411,24,16,24z M10,5.757L5.757,10  c-1.172-1.172-1.172-3.071,0-4.243C6.929,4.586,8.828,4.586,10,5.757z M26.243,10L22,5.757c1.172-1.172,3.071-1.172,4.243,0  C27.414,6.929,27.414,8.828,26.243,10z M17,15.586l2.707,2.707l-1.414,1.414L15,16.414V10h2V15.586z" style="fill: #111918;"/>
<metadata><work rdf:about=""><format>image/svg+xml</format><type rdf:resource="http://purl.org/dc/dcmitype/StillImage"/><license rdf:resource="http://creativecommons.org/licenses/by/4.0/"/><attributionname>Shannon E Thomas</attributionname><attributionurl>http://www.toicon.com/icons/lines-and-angles_alarm</attributionurl></work></metadata></svg>